HIERARCHY
ROOT Hips
{
 OFFSET 0.000000 0.000000 0.000000
 CHANNELS 6 Xposition Yposition Zposition Yrotation Xrotation Zrotation
 JOINT Chest
 {
  OFFSET 0.000000 9.585900 0.002600
  CHANNELS 3 Yrotation Xrotation Zrotation
  JOINT Chest2
  {
   OFFSET 0.000000 9.601200 -0.005300
   CHANNELS 3 Yrotation Xrotation Zrotation
   JOINT Chest3
   {
    OFFSET 0.000000 9.561800 0.000000
    CHANNELS 3 Yrotation Xrotation Zrotation
    JOINT Chest4
    {
     OFFSET 0.000000 9.552100 0.000000
     CHANNELS 3 Yrotation Xrotation Zrotation
     JOINT Neck
     {
      OFFSET 0.000000 14.453000 0.000000
      CHANNELS 3 Yrotation Xrotation Zrotation
      JOINT Head
      {
       OFFSET 0.000000 8.936500 -0.011300
       CHANNELS 3 Yrotation Xrotation Zrotation
       End Site
       {
        OFFSET 0.000000 17.073600 -0.006000
       }
      }
     }
     JOINT RightCollar
     {
      OFFSET -2.921100 9.558500 0.000000
      CHANNELS 3 Yrotation Xrotation Zrotation
      JOINT RightShoulder
      {
       OFFSET -13.519700 0.000000 0.000000
       CHANNELS 3 Yrotation Xrotation Zrotation
       JOINT RightElbow
       {
        OFFSET 0.000000 -29.696600 0.000000
        CHANNELS 3 Yrotation Xrotation Zrotation
        JOINT RightWrist
        {
         OFFSET 0.000000 -24.004700 0.000000
         CHANNELS 3 Yrotation Xrotation Zrotation
         End Site
         {
          OFFSET 0.000000 -17.728500 0.000000
         }
        }
       }
      }
     }
     JOINT LeftCollar
     {
      OFFSET 2.921100 9.558500 0.000000
      CHANNELS 3 Yrotation Xrotation Zrotation
      JOINT LeftShoulder
      {
       OFFSET 13.519700 0.000000 0.000000
       CHANNELS 3 Yrotation Xrotation Zrotation
       JOINT LeftElbow
       {
        OFFSET 0.000000 -29.696600 0.000000
        CHANNELS 3 Yrotation Xrotation Zrotation
        JOINT LeftWrist
        {
         OFFSET 0.000000 -24.004700 0.000000
         CHANNELS 3 Yrotation Xrotation Zrotation
         End Site
         {
          OFFSET 0.000000 -17.728500 0.000000
         }
        }
       }
      }
     }
    }
   }
  }
 }
 JOINT RightHip
 {
  OFFSET -7.771700 -0.012900 -0.001300
  CHANNELS 3 Yrotation Xrotation Zrotation
  JOINT RightKnee
  {
   OFFSET 0.000000 -40.869800 0.001200
   CHANNELS 3 Yrotation Xrotation Zrotation
   JOINT RightAnkle
   {
    OFFSET 0.000000 -39.717900 0.002100
    CHANNELS 3 Yrotation Xrotation Zrotation
    JOINT RightToe
    {
     OFFSET 0.000000 -4.965400 11.033500
     CHANNELS 3 Yrotation Xrotation Zrotation
     End Site
     {
      OFFSET 0.000000 -1.423100 5.872300
     }
    }
   }
  }
 }
 JOINT LeftHip
 {
  OFFSET 7.771700 -0.012900 -0.001300
  CHANNELS 3 Yrotation Xrotation Zrotation
  JOINT LeftKnee
  {
   OFFSET 0.000000 -40.869800 0.001200
   CHANNELS 3 Yrotation Xrotation Zrotation
   JOINT LeftAnkle
   {
    OFFSET 0.000000 -39.717900 0.002100
    CHANNELS 3 Yrotation Xrotation Zrotation
    JOINT LeftToe
    {
     OFFSET 0.000000 -4.965400 11.033500
     CHANNELS 3 Yrotation Xrotation Zrotation
     End Site
     {
      OFFSET 0.000000 -1.423100 5.872300
     }
    }
   }
  }
 }
}
MOTION
Frames: 11
Frame Time: 0.008333
0.000000 85.388000 0.000000 0.000000 -5.767877 0.000000 0.000000 11.653817 0.000000 0.000000 -5.885947 0.000000 0.000000 -0.000000 0.000000 0.000000 -0.000000 0.000000 0.000000 12.528835 0.000000 0.000000 0.711642 0.000000 0.000000 -0.000000 0.000000 0.000000 0.000000 -90.000000 0.000000 -2.309062 0.000000 0.000000 2.309062 0.000000 0.000000 -0.000000 0.000000 0.000000 -0.000000 90.000000 0.000000 -2.309062 0.000000 0.000000 2.309062 0.000000 0.000000 8.520406 0.000000 0.000000 1.905762 0.000000 -0.000000 -4.658285 0.000000 0.000000 -0.000000 0.000000 0.000000 8.520406 0.000000 0.000000 1.905762 0.000000 -0.000000 -4.658285 0.000000 0.000000 -0.000000 0.000000
-66.915028 57.412448 8.514480 157.335821 -9.556726 2.416300 0.932961 6.583256 4.667208 0.021275 0.296793 0.191104 0.033285 0.534507 0.321924 0.574732 6.244763 3.788050 1.497886 14.150338 -0.231087 2.907069 -9.497051 -1.012698 7.801414 3.927782 -1.816508 12.209914 -38.424916 -28.299700 177.895008 -44.337921 -159.950934 -1.504320 -13.707231 -45.200933 -8.022644 1.468729 1.292669 -7.751023 -35.482211 13.112119 -173.583738 -35.176039 163.668448 0.104475 -14.832388 35.311343 -8.968982 -63.271637 6.112962 -37.042363 71.895543 -38.252564 -2.800662 -7.070956 -1.799985 -0.177662 0.706185 -0.083588 6.166070 -64.311028 13.952321 41.065577 65.256262 34.283007 -18.066057 -9.230932 3.653431 -0.213514 -0.864256 -0.117731
-66.913559 57.412674 8.515661 157.337836 -9.549308 2.408836 0.930571 6.582401 4.667889 0.020696 0.298731 0.190678 0.033216 0.534440 0.321574 0.576440 6.240999 3.789046 1.510331 14.148626 -0.240513 2.934195 -9.499705 -1.035351 7.797792 3.926004 -1.813926 12.165020 -38.376001 -28.309002 177.713020 -44.280404 -159.829467 -1.477217 -13.720474 -45.178584 -7.998298 1.488739 1.262050 -7.701499 -35.425897 13.125415 -173.337330 -35.058638 163.523425 0.073298 -14.830311 35.294681 -8.982234 -63.273647 6.132219 -37.049004 71.886025 -38.258475 -2.804720 -7.078232 -1.794725 -0.178401 0.714079 -0.086974 6.152117 -64.319725 13.965257 41.091952 65.241915 34.316653 -18.094260 -9.218444 3.642780 -0.203493 -0.862232 -0.111269
-66.913144 57.412780 8.517932 157.330619 -9.532703 2.404785 0.938428 6.568288 4.670532 0.017061 0.314981 0.172473 0.033528 0.534681 0.320721 0.581916 6.227227 3.804174 1.522039 14.147100 -0.250203 2.960022 -9.502074 -1.058304 7.778634 3.931898 -1.821254 12.128944 -38.336977 -28.311823 177.535839 -44.225072 -159.710650 -1.448196 -13.732922 -45.155672 -7.942266 1.538877 1.183283 -7.708147 -35.390937 13.201110 -173.095947 -34.944817 163.378783 0.044361 -14.827613 35.274828 -8.972806 -63.289486 6.141229 -37.062234 71.875359 -38.266664 -2.804536 -7.070342 -1.795283 -0.174079 0.708669 -0.083570 6.151947 -64.337260 13.974154 41.099803 65.241100 34.323791 -18.093498 -9.215607 3.647334 -0.205976 -0.857954 -0.112900
-66.912865 57.413326 8.518092 157.327173 -9.527754 2.403304 0.940914 6.572720 4.661801 0.019077 0.315753 0.171352 0.033674 0.534830 0.320109 0.583758 6.230970 3.798415 1.541678 14.142613 -0.267267 3.046818 -9.510729 -1.151449 7.736652 3.940738 -1.837550 12.099940 -38.314893 -28.298543 177.369478 -44.171789 -159.595807 -1.423274 -13.742999 -45.131139 -7.925725 1.541992 1.181329 -7.618824 -35.320249 13.188187 -172.861782 -34.836364 163.235610 0.015685 -14.824833 35.254645 -8.970435 -63.293960 6.148157 -37.069150 71.870696 -38.272751 -2.807072 -7.067831 -1.798556 -0.171996 0.705738 -0.079563 6.153640 -64.341990 13.978398 41.097010 65.245594 34.320331 -18.088509 -9.218261 3.653020 -0.205838 -0.855802 -0.115848
-66.914967 57.413906 8.518051 157.322140 -9.518399 2.412562 0.948683 6.584051 4.630081 0.018947 0.305747 0.182566 0.033859 0.534954 0.319538 0.584071 6.241676 3.777888 1.562713 14.126815 -0.267138 3.099144 -9.525206 -1.203786 7.720862 3.924276 -1.821841 12.053326 -38.272658 -28.304089 177.218941 -44.124536 -159.485641 -1.403814 -13.752369 -45.102335 -7.881342 1.562252 1.165659 -7.571396 -35.264296 13.211342 -172.641860 -34.735030 163.097126 -0.011661 -14.819638 35.230812 -8.949665 -63.303992 6.135178 -37.029905 71.872847 -38.243569 -2.812523 -7.063944 -1.788517 -0.181616 0.707232 -0.083188 6.168644 -64.347653 13.962856 41.094484 65.250327 34.313495 -18.074419 -9.222629 3.659545 -0.210325 -0.848531 -0.116568
-66.916671 57.414539 8.517854 157.323550 -9.510920 2.415585 0.949217 6.584676 4.617808 0.018994 0.305776 0.182270 0.034098 0.537584 0.314850 0.586211 6.247835 3.765498 1.592377 14.118745 -0.309918 3.116240 -9.551225 -1.198340 7.702624 3.913239 -1.811456 12.035363 -38.257767 -28.301619 177.050598 -44.122079 -159.343183 -1.384412 -13.765178 -45.058841 -7.835474 1.586080 1.141326 -7.520226 -35.206733 13.230856 -172.440613 -34.645238 162.962664 -0.032666 -14.810298 35.201684 -8.943642 -63.311499 6.131642 -37.022808 71.870772 -38.239281 -2.815130 -7.062768 -1.787445 -0.182298 0.708068 -0.081792 6.174565 -64.351915 13.952274 41.079331 65.254852 34.296215 -18.054899 -9.229946 3.666163 -0.204577 -0.837466 -0.111634
-66.917725 57.414973 8.518922 157.329013 -9.497387 2.408473 0.945714 6.573601 4.620883 0.019009 0.305782 0.182153 0.035555 0.545585 0.302109 0.585606 6.247185 3.762529 1.607857 14.110027 -0.329285 3.152669 -9.574169 -1.227350 7.686259 3.913243 -1.808842 12.016936 -38.245802 -28.298570 176.898782 -44.130366 -159.209332 -1.364841 -13.783499 -45.000381 -7.804258 1.602242 1.126588 -7.435039 -35.135002 13.223117 -172.261468 -34.569555 162.837038 -0.046532 -14.800050 35.165573 -8.965635 -63.323088 6.156644 -37.020571 71.866034 -38.242337 -2.816405 -7.058423 -1.785675 -0.180562 0.705895 -0.080625 6.154365 -64.362565 13.964799 41.066139 65.255782 34.277874 -18.023809 -9.239298 3.673714 -0.217586 -0.827468 -0.116064
-66.919019 57.415569 8.518618 157.336974 -9.489877 2.403212 0.940054 6.575780 4.609676 0.019069 0.305919 0.181661 0.039532 0.545371 0.300520 0.582707 6.240420 3.773193 1.621809 14.105687 -0.363075 3.185674 -9.602216 -1.253284 7.674440 3.920164 -1.814792 11.961124 -38.205163 -28.311911 176.803698 -44.113162 -159.127729 -1.348164 -13.807822 -44.938100 -7.793675 1.607643 1.121566 -7.307972 -35.045244 13.184714 -172.112675 -34.507338 162.730524 -0.060209 -14.787443 35.119756 -8.983125 -63.334341 6.177098 -37.055408 71.861929 -38.284285 -2.818963 -7.045326 -1.782433 -0.183662 0.692635 -0.077659 6.131406 -64.367013 13.978624 41.061420 65.254725 34.267065 -18.010522 -9.246584 3.672933 -0.221941 -0.819303 -0.112600
-66.921082 57.416297 8.516926 157.348312 -9.486677 2.403527 0.939753 6.588549 4.580686 0.014832 0.299957 0.194191 0.037583 0.538725 0.307073 0.583894 6.250942 3.752539 1.638045 14.086862 -0.363999 3.220936 -9.633541 -1.289472 7.670299 3.904797 -1.791174 11.898310 -38.153701 -28.330797 176.714187 -44.099392 -159.042225 -1.331224 -13.835861 -44.881819 -7.713747 1.655024 1.056801 -7.306423 -34.990616 13.257403 -171.993134 -34.456632 162.640562 -0.078494 -14.772126 35.069616 -8.989687 -63.339069 6.176307 -37.049142 71.866993 -38.290111 -2.813792 -7.045097 -1.768021 -0.191102 0.689861 -0.083780 6.117084 -64.367015 13.981590 41.055440 65.254772 34.254850 -18.015690 -9.247733 3.671881 -0.204058 -0.816339 -0.101867
-66.921868 57.417146 8.514150 157.351381 -9.489859 2.400109 0.946173 6.602010 4.561145 0.018522 0.303179 0.184313 0.029712 0.527902 0.331107 0.602875 6.264293 3.706488 1.636327 14.065457 -0.315479 3.270404 -9.665305 -1.350733 7.638479 3.894249 -1.756670 11.789541 -38.059397 -28.369711 176.691589 -44.023490 -159.043778 -1.311915 -13.864206 -44.834696 -7.696560 1.668193 1.072052 -7.208692 -34.903635 13.254569 -171.893891 -34.416385 162.557764 -0.097562 -14.758635 35.018966 -8.993990 -63.336217 6.181001 -37.047532 71.872535 -38.291251 -2.817482 -7.046620 -1.765723 -0.195312 0.687750 -0.083409 6.103287 -64.362922 13.993568 41.066512 65.257734 34.260507 -18.019860 -9.253594 3.674663 -0.215015 -0.815896 -0.100150
